<?xml version="1.0" standalone="no"?>
<!DOCTYPE svg PUBLIC "-//W3C//DTD SVG 20010904//EN"
 "http://www.w3.org/TR/2001/REC-SVG-20010904/DTD/svg10.dtd">
<svg version="1.0" xmlns="http://www.w3.org/2000/svg"
 width="260.000000pt" height="260.000000pt" viewBox="0 0 260.000000 260.000000"
 preserveAspectRatio="xMidYMid meet">
<metadata>
Created by potrace 1.14, written by Peter Selinger 2001-2017
</metadata>
<g transform="translate(0.000000,260.000000) scale(0.100000,-0.100000)"
fill="#000000" stroke="none">
<path d="M1566 2354 c-363 -66 -866 -374 -1055 -648 -43 -61 -91 -193 -91
-247 0 -37 12 -61 58 -118 44 -55 116 -101 156 -101 68 0 115 53 59 66 -15 3
-52 12 -80 20 -49 14 -53 17 -53 45 0 17 19 68 42 112 127 245 554 512 988
617 76 19 125 24 242 24 98 1 151 -3 158 -10 17 -17 -14 -83 -92 -196 -73
-109 -327 -369 -458 -470 -126 -98 -234 -170 -238 -159 -4 11 54 106 158 261
83 122 110 177 110 218 0 29 -26 63 -43 56 -7 -2 -22 12 -35 31 -52 82 -127
26 -286 -215 -200 -302 -304 -531 -342 -753 -29 -166 6 -237 155 -312 29 -14
59 -24 66 -21 10 3 13 34 14 114 0 106 31 284 51 297 4 2 28 -31 54 -74 152
-257 384 -496 561 -577 64 -29 129 -29 182 1 82 46 117 76 103 88 -3 2 -52 27
-110 55 -181 88 -352 248 -553 517 l-90 120 61 7 c150 17 351 141 571 353 141
136 231 251 292 371 45 90 50 108 50 165 0 76 -7 99 -69 202 -84 143 -153 178
-348 176 -60 0 -145 -7 -188 -15z m443 -486 c-41 -78 -240 -297 -364 -400 -48
-40 -43 -34 22 29 108 104 244 253 301 331 48 65 61 78 41 40z m-78 -60 c-16
-24 -64 -79 -106 -123 l-77 -80 64 75 c35 41 81 96 102 123 48 58 57 61 17 5z
m-1223 -55 c-8 -10 -35 -42 -61 -72 -26 -29 -63 -81 -82 -115 -19 -33 -35 -56
-35 -50 0 30 164 254 187 254 3 0 0 -8 -9 -17z m661 -12 c-63 -88 -182 -270
-239 -368 -77 -131 -113 -183 -80 -116 52 109 309 503 327 503 3 0 -1 -9 -8
-19z m-56 -13 c-5 -7 -53 -80 -108 -163 -54 -82 -123 -196 -153 -253 -30 -57
-56 -101 -59 -98 -7 6 74 156 140 261 60 94 178 265 184 265 2 0 0 -6 -4 -12z
m597 -48 c-46 -58 -270 -270 -326 -308 -27 -19 -38 -24 -24 -12 148 128 243
217 302 282 75 84 99 103 48 38z m-1312 -12 c-13 -18 -42 -68 -64 -112 l-42
-79 3 42 c1 23 6 45 10 49 4 4 4 -4 1 -18 -4 -14 7 0 25 30 34 58 78 120 86
120 2 0 -6 -15 -19 -32z m1353 -41 c-33 -40 -73 -84 -88 -97 -27 -25 -27 -24
2 10 71 85 138 160 142 160 2 0 -23 -33 -56 -73z m-1017 -581 c-23 -68 -46
-151 -50 -185 -4 -34 -11 -64 -16 -67 -6 -4 -8 5 -5 22 3 16 9 49 13 74 10 73
83 280 98 280 2 0 -16 -56 -40 -124z m49 27 c-14 -38 -35 -104 -48 -148 -13
-44 -24 -71 -24 -60 -2 43 74 275 89 275 4 0 -4 -30 -17 -67z m364 -304 c34
-41 82 -94 108 -119 26 -25 56 -58 67 -75 26 -39 -128 121 -197 205 -60 73
-205 287 -205 302 0 6 37 -46 83 -115 46 -68 111 -157 144 -198z m-160 171
c135 -205 277 -363 426 -474 42 -32 77 -60 77 -63 0 -15 -143 99 -232 186 -60
57 -108 99 -108 94 0 -6 57 -66 128 -134 70 -68 109 -109 87 -92 -46 36 -200
191 -241 243 l-28 35 27 -24 c39 -35 33 -16 -11 38 -49 59 -141 191 -177 256
-41 73 -26 54 52 -65z m-316 -6 c-11 -43 -22 -88 -24 -99 -4 -17 -5 -16 -6 4
-1 26 39 184 45 178 2 -2 -5 -39 -15 -83z m106 -116 c-3 -7 -5 -2 -5 12 0 14
2 19 5 13 2 -7 2 -19 0 -25z m-70 0 c-3 -8 -6 -5 -6 6 -1 11 2 17 5 13 3 -3 4
-12 1 -19z m374 -55 c13 -16 12 -17 -3 -4 -10 7 -18 15 -18 17 0 8 8 3 21 -13z
m359 -214 c42 -39 43 -39 5 -10 -22 17 -65 54 -95 82 l-55 51 50 -41 c28 -22
70 -59 95 -82z"/>
</g>
</svg>
